<?xml version="1.0" encoding="UTF-8"?>
<!DOCTYPE svg PUBLIC "-//W3C//DTD SVG 1.1//EN" "http://www.w3.org/Graphics/SVG/1.1/DTD/svg11.dtd">
<svg xmlns="http://www.w3.org/2000/svg" version="1.1" width="518px" height="120px" style="shape-rendering:geometricPrecision; text-rendering:geometricPrecision; image-rendering:optimizeQuality; fill-rule:evenodd; clip-rule:evenodd" xmlns:xlink="http://www.w3.org/1999/xlink">
<g><path style="opacity:1" fill="#fcfcfc" d="M -0.5,-0.5 C 62.8333,-0.5 126.167,-0.5 189.5,-0.5C 187.73,6.44003 186.063,13.44 184.5,20.5C 186.045,21.4519 187.712,21.7852 189.5,21.5C 189.5,45.1667 189.5,68.8333 189.5,92.5C 196.833,92.5 204.167,92.5 211.5,92.5C 211.5,77.8333 211.5,63.1667 211.5,48.5C 214.652,47.9586 217.152,48.9586 219,51.5C 219.5,65.1626 219.667,78.8293 219.5,92.5C 227.167,92.5 234.833,92.5 242.5,92.5C 242.805,85.3077 244.138,78.3077 246.5,71.5C 244.955,70.5481 243.288,70.2148 241.5,70.5C 241.667,59.8281 241.5,49.1615 241,38.5C 239.167,32.6667 235.333,28.8333 229.5,27C 224.845,26.5008 220.179,26.3342 215.5,26.5C 215.048,30.5457 214.381,34.5457 213.5,38.5C 212.505,25.6774 212.171,12.6774 212.5,-0.5C 261.167,-0.5 309.833,-0.5 358.5,-0.5C 356.942,9.18318 355.275,18.8499 353.5,28.5C 355.167,28.5 356.833,28.5 358.5,28.5C 358.333,40.8378 358.5,53.1712 359,65.5C 362.096,88.4846 375.262,98.6513 398.5,96C 413.785,93.0481 422.619,83.8814 425,68.5C 425.5,45.5024 425.667,22.5024 425.5,-0.5C 456.167,-0.5 486.833,-0.5 517.5,-0.5C 517.5,39.5 517.5,79.5 517.5,119.5C 344.833,119.5 172.167,119.5 -0.5,119.5C -0.5,79.5 -0.5,39.5 -0.5,-0.5 Z"/></g>
<g><path style="opacity:1" fill="#010101" d="M 189.5,-0.5 C 196.833,-0.5 204.167,-0.5 211.5,-0.5C 211.333,14.1705 211.5,28.8371 212,43.5C 212.608,41.8455 213.108,40.1789 213.5,38.5C 214.381,34.5457 215.048,30.5457 215.5,26.5C 220.179,26.3342 224.845,26.5008 229.5,27C 235.333,28.8333 239.167,32.6667 241,38.5C 241.5,49.1615 241.667,59.8281 241.5,70.5C 243.288,70.2148 244.955,70.5481 246.5,71.5C 244.138,78.3077 242.805,85.3077 242.5,92.5C 234.833,92.5 227.167,92.5 219.5,92.5C 219.667,78.8293 219.5,65.1626 219,51.5C 217.152,48.9586 214.652,47.9586 211.5,48.5C 211.5,63.1667 211.5,77.8333 211.5,92.5C 204.167,92.5 196.833,92.5 189.5,92.5C 189.5,68.8333 189.5,45.1667 189.5,21.5C 187.712,21.7852 186.045,21.4519 184.5,20.5C 186.063,13.44 187.73,6.44003 189.5,-0.5 Z"/></g>
<g><path style="opacity:1" fill="#b5b5b5" d="M 211.5,-0.5 C 211.833,-0.5 212.167,-0.5 212.5,-0.5C 212.171,12.6774 212.505,25.6774 213.5,38.5C 213.108,40.1789 212.608,41.8455 212,43.5C 211.5,28.8371 211.333,14.1705 211.5,-0.5 Z"/></g>
<g><path style="opacity:1" fill="#0e0e0e" d="M 358.5,-0.5 C 368.5,-0.5 378.5,-0.5 388.5,-0.5C 388.333,21.1692 388.5,42.8359 389,64.5C 391,68.5 393,68.5 395,64.5C 395.5,42.8359 395.667,21.1692 395.5,-0.5C 405.5,-0.5 415.5,-0.5 425.5,-0.5C 425.667,22.5024 425.5,45.5024 425,68.5C 422.619,83.8814 413.785,93.0481 398.5,96C 375.262,98.6513 362.096,88.4846 359,65.5C 358.5,53.1712 358.333,40.8378 358.5,28.5C 356.833,28.5 355.167,28.5 353.5,28.5C 355.275,18.8499 356.942,9.18318 358.5,-0.5 Z"/></g>
<g><path style="opacity:1" fill="#fcfcfc" d="M 388.5,-0.5 C 390.833,-0.5 393.167,-0.5 395.5,-0.5C 395.667,21.1692 395.5,42.8359 395,64.5C 393,68.5 391,68.5 389,64.5C 388.5,42.8359 388.333,21.1692 388.5,-0.5 Z"/></g>
<g><path style="opacity:1" fill="#030303" d="M 52.5,58.5 C 53.404,57.791 53.7373,56.791 53.5,55.5C 49.5,55.5 45.5,55.5 41.5,55.5C 43.2167,48.9165 44.55,42.2498 45.5,35.5C 56.5,35.5 67.5,35.5 78.5,35.5C 79.1305,49.0157 76.9638,62.0157 72,74.5C 58.2088,94.323 40.7088,98.4896 19.5,87C 7.28961,75.5513 1.62295,61.3847 2.5,44.5C 2.67818,30.3154 7.67818,18.1488 17.5,8C 27.0792,0.269993 37.7459,-1.56334 49.5,2.5C 51.0554,2.27801 52.3887,1.61135 53.5,0.5C 58.9728,4.13953 64.3062,7.97286 69.5,12C 64.1667,18.6667 58.8333,25.3333 53.5,32C 52.8333,32.6667 52.1667,32.6667 51.5,32C 46.7264,25.1532 40.7264,23.8199 33.5,28C 32.3333,29.8333 31.1667,31.6667 30,33.5C 28.4772,41.1016 28.1439,48.7682 29,56.5C 32.0326,69.5274 39.0326,72.5274 50,65.5C 51.4114,63.3496 52.2447,61.0163 52.5,58.5 Z"/></g>
<g><path style="opacity:1" fill="#f8f8f8" d="M 362.5,4.5 C 369.5,4.5 376.5,4.5 383.5,4.5C 383.333,24.5028 383.5,44.5028 384,64.5C 385.96,71.1587 390.127,73.3253 396.5,71C 398.049,69.786 399.215,68.286 400,66.5C 400.5,45.836 400.667,25.1694 400.5,4.5C 407.167,4.5 413.833,4.5 420.5,4.5C 420.667,25.8359 420.5,47.1693 420,68.5C 416.939,84.0548 407.439,91.7215 391.5,91.5C 375.165,90.9963 365.998,82.663 364,66.5C 363.5,52.1705 363.333,37.8372 363.5,23.5C 362.167,23.5 360.833,23.5 359.5,23.5C 360.372,17.1421 361.372,10.8088 362.5,4.5 Z"/></g>
<g><path style="opacity:1" fill="#030303" d="M 174.5,12.5 C 174.5,17.1667 174.5,21.8333 174.5,26.5C 177.833,26.5 181.167,26.5 184.5,26.5C 182.525,33.737 180.858,41.0703 179.5,48.5C 177.833,48.5 176.167,48.5 174.5,48.5C 174.5,63.1667 174.5,77.8333 174.5,92.5C 167.167,92.5 159.833,92.5 152.5,92.5C 152.5,77.8333 152.5,63.1667 152.5,48.5C 150.5,48.5 148.5,48.5 146.5,48.5C 147.757,37.9491 149.757,27.6158 152.5,17.5C 159.895,16.0877 167.229,14.4211 174.5,12.5 Z"/></g>
<g><path style="opacity:1" fill="#0e0e0e" d="M 431.5,23.5 C 444.504,23.3334 457.504,23.5001 470.5,24C 481.466,26.2984 488.632,32.7984 492,43.5C 496.011,57.6749 494.678,71.3416 488,84.5C 480.569,93.42 471.235,96.7533 460,94.5C 459.5,101.826 459.334,109.159 459.5,116.5C 450.167,116.5 440.833,116.5 431.5,116.5C 431.5,94.5 431.5,72.5 431.5,50.5C 429.833,50.5 428.167,50.5 426.5,50.5C 428.643,41.5943 430.309,32.5943 431.5,23.5 Z"/></g>
<g><path style="opacity:1" fill="#8e8e8e" d="M 174.5,12.5 C 175.485,16.6344 175.818,20.9677 175.5,25.5C 178.713,25.19 181.713,25.5233 184.5,26.5C 181.167,26.5 177.833,26.5 174.5,26.5C 174.5,21.8333 174.5,17.1667 174.5,12.5 Z"/></g>
<g><path style="opacity:1" fill="#040404" d="M 272.5,24.5 C 289.744,23.5703 300.244,31.5703 304,48.5C 305.191,53.7674 305.691,59.1007 305.5,64.5C 294.495,64.3335 283.495,64.5002 272.5,65C 276.37,72.9665 282.703,75.9665 291.5,74C 294.919,73.4787 298.252,72.6454 301.5,71.5C 301.833,72 302.167,72.5 302.5,73C 301.255,78.1465 300.088,83.3131 299,88.5C 298.682,90.0609 297.849,91.2276 296.5,92C 271.664,98.3394 256.164,89.1727 250,64.5C 247.953,45.5763 255.453,32.243 272.5,24.5 Z"/></g>
<g><path style="opacity:1" fill="#020202" d="M 102.5,25.5 C 107.777,25.1179 112.777,26.1179 117.5,28.5C 124.624,26.5838 131.957,25.9171 139.5,26.5C 139.5,41.1667 139.5,55.8333 139.5,70.5C 141.288,70.2148 142.955,70.5481 144.5,71.5C 142.833,78.1667 141.167,84.8333 139.5,91.5C 132.197,92.4973 124.863,92.8306 117.5,92.5C 118.096,67.4078 116.762,67.4078 113.5,92.5C 95.7091,93.5474 85.5424,85.214 83,67.5C 79.9106,53.0094 83.4106,40.5094 93.5,30C 96.5919,28.4541 99.5919,26.9541 102.5,25.5 Z"/></g>
<g><path style="opacity:1" fill="#010101" d="M 312.5,26.5 C 320.167,26.5 327.833,26.5 335.5,26.5C 335.34,28.1992 335.506,29.8659 336,31.5C 339.782,26.6799 344.616,25.3466 350.5,27.5C 348.809,33.7861 347.309,40.1194 346,46.5C 343.931,47.2638 341.764,47.7638 339.5,48C 337.667,48.5 336.5,49.6667 336,51.5C 335.5,65.1626 335.333,78.8293 335.5,92.5C 328.167,92.5 320.833,92.5 313.5,92.5C 313.5,77.8333 313.5,63.1667 313.5,48.5C 311.833,48.5 310.167,48.5 308.5,48.5C 309.962,41.1888 311.296,33.8554 312.5,26.5 Z"/></g>
<g><path style="opacity:1" fill="#fafafa" d="M 437.5,111.5 C 437.5,89.5 437.5,67.5 437.5,45.5C 435.833,45.5 434.167,45.5 432.5,45.5C 433.232,39.9048 434.565,34.5715 436.5,29.5C 442.167,29.5 447.833,29.5 453.5,29.5C 453.171,42.3443 453.505,55.011 454.5,67.5C 456.309,73.9029 460.309,75.7363 466.5,73C 471.245,67.7307 472.745,61.564 471,54.5C 469.21,48.8747 465.377,46.2081 459.5,46.5C 460.242,40.4552 461.242,34.4552 462.5,28.5C 477.961,28.4574 486.794,36.1241 489,51.5C 490.715,62.0794 489.049,72.0794 484,81.5C 475.885,90.9457 466.218,92.9457 455,87.5C 454.5,95.4931 454.334,103.493 454.5,111.5C 448.833,111.5 443.167,111.5 437.5,111.5 Z"/></g>
<g><path style="opacity:1" fill="#9a9a9a" d="M 436.5,29.5 C 442.31,28.5104 448.31,28.1771 454.5,28.5C 454.5,41.5 454.5,54.5 454.5,67.5C 453.505,55.011 453.171,42.3443 453.5,29.5C 447.833,29.5 442.167,29.5 436.5,29.5 Z"/></g>
<g><path style="opacity:1" fill="#f2f2f2" d="M 275.5,42.5 C 281.585,42.2914 284.251,45.2914 283.5,51.5C 279.5,51.5 275.5,51.5 271.5,51.5C 272.023,48.122 273.356,45.122 275.5,42.5 Z"/></g>
<g><path style="opacity:1" fill="#a4a4a4" d="M 432.5,45.5 C 434.167,45.5 435.833,45.5 437.5,45.5C 437.5,67.5 437.5,89.5 437.5,111.5C 436.503,90.0064 436.169,68.3398 436.5,46.5C 434.901,46.7678 433.568,46.4345 432.5,45.5 Z"/></g>
<g><path style="opacity:1" fill="#f7f7f7" d="M 110.5,46.5 C 113.808,45.9738 115.974,47.3072 117,50.5C 117.5,57.1583 117.666,63.825 117.5,70.5C 111.844,71.7572 108.011,69.7572 106,64.5C 105.333,60.5 105.333,56.5 106,52.5C 106.804,49.8541 108.304,47.8541 110.5,46.5 Z"/></g>
<g><path style="opacity:1" fill="#f4f4f4" d="M 459.5,51.5 C 464.734,51.7526 467.067,54.586 466.5,60C 466.435,62.5912 465.935,65.0912 465,67.5C 463.301,68.4061 461.467,68.7394 459.5,68.5C 459.5,62.8333 459.5,57.1667 459.5,51.5 Z"/></g>
<g><path style="opacity:1" fill="#7b7b7b" d="M 41.5,55.5 C 45.5,55.5 49.5,55.5 53.5,55.5C 53.7373,56.791 53.404,57.791 52.5,58.5C 49.1091,56.8746 45.4425,55.8746 41.5,55.5 Z"/></g>
</svg>
